<svg xmlns="http://www.w3.org/2000/svg" width="120" height="23" viewBox="0 0 120 23" fill="none">
  <path d="M4.29156 20.6109V22.0509C4.29156 22.3455 4.095 22.5418 3.80016 22.5418H0.491401C0.19656 22.5418 0 22.3455 0 22.0509V1.56355C0 1.30173 0.13104 1.10537 0.425881 1.00718L3.80016 0.0253612C4.12776 -0.072821 4.35708 0.123544 4.35708 0.450818V8.0763C5.43817 7.02903 7.56757 5.91629 10.3849 5.91629C16.1507 5.91629 19.2957 8.89381 19.2957 14.3593C19.2957 19.8248 16.1507 22.9993 10.3849 22.9993C7.56757 22.9993 5.43817 21.8866 4.29156 20.6102M15.2662 14.4575C15.2662 11.4138 13.1368 9.58108 9.63145 9.58108C6.12613 9.58108 4.35708 11.4138 4.35708 14.5556C4.35708 17.5338 6.25717 19.3011 9.63145 19.3011C13.0057 19.3011 15.2662 17.4684 15.2662 14.4575ZM21.6544 14.3593C21.6544 8.89381 24.7993 5.91629 30.5651 5.91629C33.3825 5.91629 35.5774 7.02834 36.6585 8.0763V6.66902C36.6585 6.37448 36.855 6.17811 37.1499 6.17811H40.4586C40.7535 6.17811 40.95 6.37448 40.95 6.66902V22.0509C40.95 22.3455 40.7535 22.5418 40.4586 22.5418H37.0844C36.7895 22.5418 36.593 22.3455 36.593 22.0509V20.6109C35.5119 21.8873 33.3825 23 30.5651 23C24.7993 23 21.6544 19.9564 21.6544 14.36M36.855 14.6545V14.4581C36.855 11.4145 34.8894 9.58176 31.5152 9.58176C28.1409 9.58176 25.8804 11.4145 25.8804 14.4581C25.8804 17.5018 28.0098 19.3018 31.5152 19.3018C35.0205 19.3018 36.855 17.5345 36.855 14.6545ZM45.4709 22.0509V1.56355C45.4709 1.30173 45.602 1.10537 45.8968 1.00718L49.2711 0.0253612C49.5987 -0.072821 49.828 0.123544 49.828 0.450818V13.1163L57.3628 6.57084C57.5921 6.37448 57.9197 6.17811 58.1818 6.17811H62.2768C62.8993 6.17811 63.1613 6.6363 62.6699 7.06175L56.1179 12.8872L64.1114 21.6909C64.4717 22.1164 64.3407 22.5418 63.8493 22.5418H59.8198C59.2301 22.5418 58.9025 22.4764 58.5422 22.0836L53.0057 15.8327H49.828V22.0509C49.828 22.3455 49.6315 22.5418 49.3366 22.5418H45.9623C45.6675 22.5418 45.4709 22.3455 45.4709 22.0509ZM64.7993 14.36C64.7993 8.89449 68.1081 5.91698 74.8567 5.91698C77.9034 5.91698 80.2621 6.47266 82.326 7.42175C82.6208 7.55266 82.6863 7.81448 82.5553 8.0763L81.4742 10.7272C81.3432 11.0545 81.1138 11.12 80.819 10.989C79.1155 10.2036 77.4775 9.61449 74.8567 9.61449C70.9582 9.61449 68.8944 11.2836 68.8944 14.36C68.8944 17.4363 71.0238 19.3018 74.8567 19.3018C77.4447 19.3018 79.05 18.68 80.819 17.7636C81.1138 17.6327 81.3432 17.6982 81.4742 17.9927L82.6208 20.5782C82.7518 20.84 82.7191 21.0691 82.4898 21.2C80.3604 22.4109 77.9361 23 74.8567 23C68.1081 23 64.7993 19.9564 64.7993 14.36ZM84.6519 14.36C84.6519 8.89449 87.9607 5.91698 94.2178 5.91698C100.475 5.91698 103.391 8.73153 103.391 13.9352V15.4072C103.391 15.7345 103.194 15.9309 102.867 15.9309H88.9762C89.6642 18.0582 91.7281 19.3018 95.1024 19.3018C97.4611 19.3018 99.0336 18.7127 100.803 17.8291C101.097 17.6982 101.327 17.7636 101.458 18.0909L102.473 20.48C102.604 20.7745 102.572 20.9709 102.342 21.1018C100.311 22.28 97.8542 23 95.1024 23C87.9607 23 84.6519 19.9564 84.6519 14.36ZM94.2178 9.3854C91.466 9.3854 89.5659 10.5963 88.9762 12.6588H99.2301C98.9353 10.6297 97.1007 9.3854 94.2178 9.3854ZM106.765 22.0509V1.56355C106.765 1.30173 106.896 1.10537 107.191 1.00718L110.565 0.0253612C110.893 -0.072821 111.122 0.123544 111.122 0.450818V22.0509C111.122 22.3455 110.925 22.5418 110.631 22.5418H107.256C106.962 22.5418 106.765 22.3455 106.765 22.0509ZM115.643 22.0509V1.56355C115.643 1.30173 115.774 1.10537 116.069 1.00718L119.443 0.0253612C119.771 -0.072821 120 0.123544 120 0.450818V22.0509C120 22.3455 119.803 22.5418 119.509 22.5418H116.134C115.839 22.5418 115.643 22.3455 115.643 22.0509Z" fill="#FF0037"/>
</svg>