<svg width="81" height="80" viewBox="0 0 81 80" fill="none" xmlns="http://www.w3.org/2000/svg">
<rect x="0.5" width="80" height="80" rx="19" fill="#FF0037"/>
<path d="M11.7173 44.7535V45.5048C11.7173 45.6585 11.6158 45.7609 11.4634 45.7609H9.75389C9.60156 45.7609 9.5 45.6585 9.5 45.5048V34.8158C9.5 34.6792 9.5677 34.5767 9.72004 34.5255L11.4634 34.0132C11.6327 33.962 11.7512 34.0645 11.7512 34.2352V38.2137C12.3097 37.6673 13.4099 37.0868 14.8655 37.0868C17.8445 37.0868 19.4694 38.6402 19.4694 41.4918C19.4694 44.3434 17.8445 45.9996 14.8655 45.9996C13.4099 45.9996 12.3097 45.4191 11.7173 44.7532M17.3875 41.543C17.3875 39.955 16.2873 38.9988 14.4762 38.9988C12.6652 38.9988 11.7512 39.955 11.7512 41.5943C11.7512 43.1481 12.7329 44.0702 14.4762 44.0702C16.2196 44.0702 17.3875 43.1139 17.3875 41.543ZM20.6881 41.4918C20.6881 38.6402 22.313 37.0868 25.292 37.0868C26.7476 37.0868 27.8817 37.667 28.4402 38.2137V37.4795C28.4402 37.3258 28.5418 37.2234 28.6941 37.2234H30.4036C30.556 37.2234 30.6575 37.3258 30.6575 37.4795V45.5048C30.6575 45.6585 30.556 45.7609 30.4036 45.7609H28.6603C28.5079 45.7609 28.4064 45.6585 28.4064 45.5048V44.7535C27.8478 45.4194 26.7476 46 25.292 46C22.313 46 20.6881 44.412 20.6881 41.4922M28.5418 41.6458V41.5434C28.5418 39.9554 27.5262 38.9992 25.7828 38.9992C24.0394 38.9992 22.8716 39.9554 22.8716 41.5434C22.8716 43.1314 23.9717 44.0705 25.7828 44.0705C27.5939 44.0705 28.5418 43.1484 28.5418 41.6458ZM32.9933 45.5048V34.8158C32.9933 34.6792 33.061 34.5767 33.2134 34.5255L34.9567 34.0132C35.126 33.962 35.2445 34.0645 35.2445 34.2352V40.8433L39.1375 37.4283C39.2559 37.3258 39.4252 37.2234 39.5606 37.2234H41.6764C41.998 37.2234 42.1334 37.4624 41.8795 37.6844L38.4943 40.7238L42.6242 45.317C42.8104 45.539 42.7427 45.7609 42.4888 45.7609H40.4069C40.1022 45.7609 39.933 45.7268 39.7468 45.5219L36.8863 42.2605H35.2445V45.5048C35.2445 45.6585 35.1429 45.7609 34.9906 45.7609H33.2472C33.0949 45.7609 32.9933 45.6585 32.9933 45.5048ZM42.9797 41.4922C42.9797 38.6406 44.6892 37.0871 48.176 37.0871C49.7501 37.0871 50.9687 37.377 52.0351 37.8722C52.1874 37.9405 52.2213 38.0771 52.1536 38.2137L51.595 39.5968C51.5273 39.7676 51.4088 39.8017 51.2565 39.7334C50.3763 39.3236 49.53 39.0163 48.176 39.0163C46.1618 39.0163 45.0954 39.8871 45.0954 41.4922C45.0954 43.0972 46.1956 44.0705 48.176 44.0705C49.5131 44.0705 50.3425 43.7461 51.2565 43.268C51.4088 43.1997 51.5273 43.2338 51.595 43.3875L52.1874 44.7364C52.2551 44.873 52.2382 44.9926 52.1197 45.0609C51.0195 45.6926 49.767 46 48.176 46C44.6892 46 42.9797 44.412 42.9797 41.4922ZM53.2368 41.4922C53.2368 38.6406 54.9464 37.0871 58.1792 37.0871C61.4121 37.0871 62.9185 38.5556 62.9185 41.2705V42.0386C62.9185 42.2093 62.817 42.3118 62.6477 42.3118H55.4711C55.8265 43.4216 56.8929 44.0705 58.6362 44.0705C59.8549 44.0705 60.6674 43.7632 61.5814 43.3021C61.7337 43.2338 61.8522 43.268 61.9199 43.4387L62.4446 44.6852C62.5123 44.8389 62.4954 44.9413 62.3769 45.0096C61.3275 45.6243 60.058 46 58.6362 46C54.9464 46 53.2368 44.412 53.2368 41.4922ZM58.1792 38.8967C56.7574 38.8967 55.7757 39.5285 55.4711 40.6046H60.7689C60.6166 39.5459 59.6687 38.8967 58.1792 38.8967ZM64.6619 45.5048V34.8158C64.6619 34.6792 64.7296 34.5767 64.8819 34.5255L66.6253 34.0132C66.7946 33.962 66.9131 34.0645 66.9131 34.2352V45.5048C66.9131 45.6585 66.8115 45.7609 66.6592 45.7609H64.9158C64.7634 45.7609 64.6619 45.6585 64.6619 45.5048ZM69.2488 45.5048V34.8158C69.2488 34.6792 69.3165 34.5767 69.4689 34.5255L71.2123 34.0132C71.3815 33.962 71.5 34.0645 71.5 34.2352V45.5048C71.5 45.6585 71.3984 45.7609 71.2461 45.7609H69.5027C69.3504 45.7609 69.2488 45.6585 69.2488 45.5048Z" fill="#F4F2F2"/>
</svg>
