<svg width="18" height="18" viewBox="0 0 18 18" fill="none" xmlns="http://www.w3.org/2000/svg">
<path fill-rule="evenodd" clip-rule="evenodd" d="M2.86502 0.88657C1.68765 0.768833 0.666016 1.6934 0.666016 2.87664V15.8443C0.666016 17.067 1.75349 18.0035 2.96269 17.8222L15.6294 15.9222C16.6084 15.7753 17.3327 14.9343 17.3327 13.9443V4.14331C17.3327 3.11581 16.5541 2.25548 15.5317 2.15324L2.86502 0.88657ZM8.07073 5.42818V5.42796L8.06934 5.42862L8.07073 5.42818ZM8.07073 5.42818V6.62581C6.83312 6.74354 5.90249 7.11262 5.24132 7.74428C3.98808 8.9418 3.99398 10.7746 4.00022 12.7154L4.00024 12.7202C4.00024 12.7936 4.00058 12.8674 4.00093 12.9415C4.00128 13.0162 4.00163 13.0913 4.00163 13.1667H5.87679C5.87679 13.0145 5.87679 12.8637 5.8754 12.7143L5.8754 12.7138C5.86984 11.0849 5.86505 9.67758 6.56921 9.00496C6.88799 8.70071 7.38317 8.50823 8.07004 8.42225V11.9761L9.9452 11.4013V8.42423C10.6237 8.51154 11.1141 8.70335 11.4294 9.00496C12.1335 9.67824 12.1287 11.0849 12.1232 12.7138L12.1232 12.7143C12.1232 12.7887 12.1228 12.8634 12.1225 12.9385C12.1221 13.0142 12.1218 13.0903 12.1218 13.1667H13.9969C13.9969 13.0165 13.9969 12.8677 13.9983 12.7202C14.0053 10.7776 14.0115 8.94213 12.7572 7.74428C12.0996 7.11592 11.1738 6.74751 9.94451 6.62779V4.83334L8.07073 5.42818Z" fill="#F4F2F2"/>
</svg>
