<svg width="20" height="20" viewBox="0 0 20 20" fill="none" xmlns="http://www.w3.org/2000/svg">
<g clip-path="url(#clip0_5940_9229)">
<mask id="mask0_5940_9229" style="mask-type:luminance" maskUnits="userSpaceOnUse" x="0" y="0" width="20" height="20">
<path d="M20 0H0V20H20V0Z" fill="white"/>
</mask>
<g mask="url(#mask0_5940_9229)">
<path d="M9.98828 8.125C11.1964 8.125 12.1758 7.14562 12.1758 5.9375C12.1758 4.72938 11.1964 3.75 9.98828 3.75C8.78016 3.75 7.80078 4.72938 7.80078 5.9375C7.80078 7.14562 8.78016 8.125 9.98828 8.125Z" fill="#F4F2F2"/>
<path d="M16.6294 10.6917L3.0093 11.9646C2.00791 12.0583 1.24332 12.9 1.2461 13.9056L1.25027 15.5937C1.25305 16.5986 2.0211 17.4361 3.0218 17.525L16.6378 18.741C17.7753 18.8424 18.7551 17.9465 18.7551 16.8042V12.6271C18.7551 11.4819 17.7704 10.5847 16.6294 10.691V10.6917Z" fill="#F4F2F2"/>
<path d="M9.99939 10.625V9.375C8.06536 9.375 6.55078 7.86528 6.55078 5.9375C6.55078 4.00972 8.09314 2.5 9.98828 2.5C11.8834 2.5 13.4258 4.04236 13.4258 5.9375H13.4369V6.94444C13.4369 7.25139 13.6855 7.5 13.9924 7.5H14.7563C15.0633 7.5 15.3119 7.25139 15.3119 6.94444V5.80069C15.3119 5.32222 15.0056 4.89792 14.5522 4.74653L14.5188 4.73542C13.9869 2.73125 12.1577 1.25 9.98828 1.25C7.40356 1.25 5.30078 3.35278 5.30078 5.9375C5.30078 8.52222 7.36467 10.625 9.99939 10.625Z" fill="#F4F2F2"/>
</g>
</g>
<defs>
<clipPath id="clip0_5940_9229">
<rect width="20" height="20" fill="white"/>
</clipPath>
</defs>
</svg>
